<svg xmlns="http://www.w3.org/2000/svg" width="1349.333251953125" height="1349.333251953125" style=""><rect id="backgroundrect" width="100%" height="100%" x="0" y="0" fill="none" stroke="none" class="" style=""/>
 <metadata id="metadata8">image/svg+xml</metadata>
 <defs>
  <clipPath clipPathUnits="userSpaceOnUse" id="clipPath20">
   <path d="m189.2622,976.6649l1120,0l0,-1012l-1120,0l0,1012z" id="path18"/>
  </clipPath>
  <clipPath clipPathUnits="userSpaceOnUse" id="clipPath72">
   <path d="m250.1567,819.5189l300.9885,0l0,-300.989l-300.9885,0l0,300.989z" id="path70"/>
  </clipPath>
 </defs>
 <g style="" class="currentLayer">
  <title>Layer 1</title>
  
 <g class="" id="svg_1" transform=""><g id="g30" stroke-width="0" class="" transform="">
     <path d="m1044.3231201171875,673.9126976212574 c0,204.98319376984 -166.42800903320312,371.17323041390773 -371.7298278808594,371.17323041390773 c-205.30186462402344,0 -371.7298278808594,-166.19000607157795 -371.7298278808594,-371.17323041390773 c0,-204.99556034195484 166.42800903320312,-371.17081518721534 371.7298278808594,-371.17081518721534 c205.30186462402344,0 371.7298278808594,166.17516312779117 371.7298278808594,371.17081518721534 " id="path32" fill-rule="nonzero" fill="#412116" stroke-width="0" transform=""/>
    </g><g id="g34" stroke-width="0" class="" transform="">
     <path d="m646.0595092773438,537.0932238912064 c5.243945121765137,-7.643216550223656 10.532354354858398,-15.177912226422222 15.877569198608398,-22.542428526752246 c8.240135192871094,-11.357540465213333 16.55190086364746,-22.32292569327501 24.871074676513672,-32.881370063816576 c63.86103820800781,29.430947402887796 127.26014709472656,35.54748607200327 184.94851684570312,41.13131057143619 c42.70246505737305,4.133601727525161 82.11233520507812,7.978637844861737 115.45820617675781,21.092212920271777 c0.6224564909934998,1.4970733211343656 1.217741847038269,3.0138773628586364 1.8253779411315918,4.525751710030136 c0.2766471803188324,0.6979769279031274 0.5607043504714966,1.4132179974748453 0.8422914743423462,2.111195701632596 c0.5705849528312683,1.465011616718499 1.1337600946426392,2.934957107822356 1.6845837831497192,4.4172308360050465 c0.2766471803188324,0.7695006109058511 0.5607043504714966,1.531602918133217 0.8472322225570679,2.2887736200272 c0.5409442186355591,1.4970733211343656 1.0942384004592896,2.9842843869922717 1.608013391494751,4.478891726324264 c0.19760523736476898,0.5647934293952801 0.3803902566432953,1.146852433544609 0.5829352140426636,1.7165793790538828 c1.0547174215316772,3.018810281853689 2.045213460922241,6.057352239687589 3.0011281967163086,9.120559986734634 c0.20748546719551086,0.6313852682170449 0.41497093439102173,1.2948335545116265 0.6076359748840332,1.9434831435329443 c0.4421415328979492,1.4452806572810175 0.8818131685256958,2.8905615534096114 1.2943141460418701,4.345706496171488 c0.26182690262794495,0.8878859495474813 0.5211831331253052,1.7881030023447124 0.7756004333496094,2.678454157439944 c0.39274051785469055,1.408284720208428 0.7953604459762573,2.8264364726448434 1.1732808351516724,4.254452391138329 c0.25688663125038147,0.9199490870488063 0.4915429353713989,1.862095354185044 0.736079216003418,2.789441132691195 c0.3680398464202881,1.4255494589959596 0.736079216003418,2.8387684118611105 1.1016486883163452,4.271716293959344 c0.17537492513656616,0.7325064054781905 0.3408690094947815,1.4576127159210728 0.5137730836868286,2.1975180819085836 c0.6397464871406555,2.6932526755775257 1.2622020244598389,5.413636525051629 1.8401985168457031,8.143888362144025 c0.21489575505256653,1.0457324905213454 0.44955185055732727,2.106262543789967 0.6669174432754517,3.142129196321207 c0.26923710107803345,1.336761455188963 0.518713116645813,2.6710563314566116 0.7780702710151672,3.9979539788598686 c0.20995567739009857,1.1246558505761186 0.4297914505004883,2.239445863162132 0.6273965835571289,3.359167600505316 c0.2445366084575653,1.3022328135804173 0.4742524325847626,2.5970668457871966 0.674327552318573,3.884498991601845 c0.22230589389801025,1.2504389554891873 0.4050907492637634,2.473748886709984 0.6026959419250488,3.6995242026142137 c0.23465639352798462,1.499539780631892 0.4693123698234558,2.9744161605264026 0.6842076182365417,4.4739590461767875 c0.26676711440086365,1.9410170423067825 0.5483538508415222,3.9140955501818553 0.7904207110404968,5.877309891999857 c0.14326386153697968,1.1739825326270932 0.2840573489665985,2.340566045032972 0.3952106535434723,3.4874182397300046 c0.16549436748027802,1.3540265522478592 0.3235785961151123,2.685854133051464 0.45202183723449707,4.037414942344526 c0.12350334972143173,1.1813814334245194 0.22971616685390472,2.3726289436867205 0.34827908873558044,3.556476000642249 c0.12844352424144745,1.3762219409784677 0.2494768649339676,2.7549133270491666 0.34827908873558044,4.1385353630629425 c0.09386252611875534,1.1295878141808657 0.1852550059556961,2.2493107457619317 0.259356826543808,3.386297819011588 c0.11856314539909363,1.800435299832344 0.22477594017982483,3.6156676847168114 0.3383989930152893,5.4333667679463815 c0.05434151366353035,1.1887802147981574 0.11115290224552155,2.345498486332872 0.16549436748027802,3.5367457577474966 c0.08398232609033585,1.9040214635055577 0.15067404508590698,3.8179092426963734 0.20748546719551086,5.731796783039613 c0.02470066398382187,1.0186029885578023 0.027170725166797638,2.0421379407203517 0.049401335418224335,3.0607394961926957 c0.029640793800354004,1.5661321568607036 0.04693126678466797,3.124864099262311 0.056811559945344925,4.690996017275438 c0.00988025963306427,1.0481985917475072 0,2.0815996207477383 -0.019760532304644585,3.1174655567362493 c0,1.674651358952758 -0.027170725166797638,3.3493029567530925 -0.06175166741013527,5.0362855383793885 c-0.02470066398382187,0.8878859495474813 -0.029640793800354004,1.7708388606761218 -0.0666917935013771,2.6513256108667065 c-0.059281639754772186,2.4959459473736274 -0.16549436748027802,4.974626558840782 -0.28158748149871826,7.477971287588048 c-0.049401335418224335,0.6708468288206433 -0.0963326245546341,1.329362076696384 -0.12844352424144745,2.0100748032190268 c-0.1136230081319809,1.918819862219351 -0.24206651747226715,3.8351731455173876 -0.3803902566432953,5.763858726303056 c-0.059281639754772186,0.9347471274912351 -0.1556140035390854,1.862095354185044 -0.21983593702316284,2.789441132691195 c-0.14326386153697968,1.7363098607962115 -0.30381807684898376,3.4602875435285796 -0.4693123698234558,5.1867332382677205 c-0.0815121978521347,0.9150160486299654 -0.17784477770328522,1.832497123671999 -0.26676711440086365,2.740114331216432 c-0.21983593702316284,2.0298064791992374 -0.4594321548938751,4.067010545534231 -0.7163186073303223,6.096816069343163 c-0.06422173976898193,0.5499955083766395 -0.12844352424144745,1.1172565915073278 -0.1926652491092682,1.6869828204738724 c-0.3408690094947815,2.5872010077970913 -0.7089082598686218,5.149738137161648 -1.1139987707138062,7.717207230130953 c-0.09880267083644867,0.7251065492904587 -0.22230589389801025,1.450213456852282 -0.3383989930152893,2.1851854261495873 c-0.30381807684898376,1.8990894999008106 -0.6249269843101501,3.7883122064212102 -0.9559154510498047,5.702198791374144 c-0.15808430314064026,0.8829530305524287 -0.3186386227607727,1.7733042453595544 -0.4866030812263489,2.6710563314566116 c-0.3408690094947815,1.8275645629483108 -0.6891478896141052,3.679792526634003 -1.0571879148483276,5.497493042949031 c-0.16549436748027802,0.8064959508594995 -0.3309888243675232,1.6327229805802688 -0.5014231204986572,2.431819911218554 c-0.5384737849235535,2.5970668457871966 -1.1065887212753296,5.211393772834185 -1.714224100112915,7.818327173154216 c-0.6520969867706299,2.7623113918800755 -1.323953628540039,5.514756945770046 -2.045213460922241,8.240072281153743 c-0.35321947932243347,1.3589587547001827 -0.7113783359527588,2.69818416148712 -1.0843584537506104,4.039879849332806 c-0.3729799687862396,1.3392275564151248 -0.7311387658119202,2.6883192788873203 -1.1164696216583252,4.017683744059468 c-0.5137730836868286,1.8103007795510848 -1.0571879148483276,3.5984040207433736 -1.5956621170043945,5.379108719409601 c-0.25441670417785645,0.8434920073558771 -0.49895280599594116,1.6697184399577054 -0.7484292387962341,2.5058110688210036 c-0.6619772911071777,2.0815996207477383 -1.3363043069839478,4.155798310493651 -2.0205130577087402,6.220132595334917 c-0.16549436748027802,0.4957358177627711 -0.3408690094947815,1.0087372699914852 -0.5014231204986572,1.5069390397006828 c-0.7681897878646851,2.3035711827744763 -1.5660203695297241,4.560279515672164 -2.3836114406585693,6.816988326265005 c-0.09139247238636017,0.24910142226164567 -0.1951352208852768,0.5228658869893081 -0.2766471803188324,0.7719670106914833 c-0.8842834830284119,2.4120903848665307 -1.793265461921692,4.8069163892168945 -2.7244808673858643,7.204207539403114 c-0.03211086615920067,0.08138961056067018 -0.0716320052742958,0.16277908676957864 -0.09880267083644867,0.2663657132099715 c-1.9562909603118896,4.982024623671691 -4.011383533477783,9.899927271597107 -6.189981460571289,14.753700778348957 c-69.82624053955078,-123.46048802455334 -202.99974060058594,-215.7759858284262 -337.2773742675781,-275.8809504254168 " id="path36" fill-rule="nonzero" fill="#ef591a" stroke-width="0" transform=""/>
    </g><g id="g38" stroke-width="0" class="" transform="">
     <path d="m408.9139099121094,652.4110044160334 c47.13623809814453,-33.63853981032025 103.35489654541016,-53.741751794108495 162.39686584472656,-29.934078867149765 c-44.33271408081055,82.51911668897992 -78.69869995117188,173.92443325657587 -89.94986724853516,263.68234356940957 c-2.8479831218719482,22.720010744403226 -4.208990573883057,45.36850861365656 -3.8705902099609375,67.73332817182927 c-0.25441670417785645,-0.17264453663237234 -0.5038931965827942,-0.34775550290632395 -0.7558392286300659,-0.5228658869893081 c-2.0872039794921875,-1.450213456852282 -4.142299175262451,-2.920158350837198 -6.192451000213623,-4.404900091026661 c-0.5409442186355591,-0.40448153359393046 -1.0843584537506104,-0.8089624103570259 -1.6154228448867798,-1.223308736982915 c-1.7685655355453491,-1.2997661152353146 -3.529721736907959,-2.6143297932179053 -5.276057243347168,-3.9634233070469236 c-0.6446868777275085,-0.5006689756054001 -1.2770230770111084,-1.0013381303464826 -1.931591510772705,-1.514339134735991 c-1.6154228448867798,-1.2652367570840397 -3.2209630012512207,-2.5304735141680794 -4.814157009124756,-3.805576586937377 c-0.6891478896141052,-0.5672603068760651 -1.3684155941009521,-1.1345206137521302 -2.0649733543395996,-1.7091803588326684 c-1.519090175628662,-1.257837498015249 -3.0381791591644287,-2.5230749716420178 -4.530097961425781,-3.808041493925657 c-0.7163186073303223,-0.6042551691345608 -1.402996301651001,-1.2183767733781679 -2.1094350814819336,-1.8152322654606792 c-1.4573379755020142,-1.2849677165215212 -2.9220852851867676,-2.5625373682121335 -4.374482154846191,-3.867235327628407 c-0.6916178464889526,-0.6190536275602483 -1.3733561038970947,-1.2504389554891873 -2.067444086074829,-1.8793583016157527 c-1.4351060390472412,-1.3120978156040053 -2.8504533767700195,-2.624195153512858 -4.246039867401123,-3.946159881921062 c-0.6916178464889526,-0.6338521456978299 -1.3560653924942017,-1.2923670950141002 -2.0303921699523926,-1.9385507022330444 c-1.3980555534362793,-1.336761455188963 -2.7862329483032227,-2.7031182747200546 -4.164529323577881,-4.0522115497014966 c-0.6422169208526611,-0.6511162276545264 -1.2869031429290771,-1.2973004917043056 -1.9340605735778809,-1.9558150827492113 c-1.3881759643554688,-1.3959536169586784 -2.7442426681518555,-2.809171136738371 -4.107717037200928,-4.229789468096101 c-0.6051658987998962,-0.6437170880095238 -1.2202112674713135,-1.277568815724095 -1.8154973983764648,-1.8990894999008106 c-1.3931163549423218,-1.4872095133486596 -2.759061336517334,-2.981815897290346 -4.117595672607422,-4.461626868112944 c-0.5483538508415222,-0.6165872874865101 -1.099178433418274,-1.2109776337331652 -1.6549437046051025,-1.8226324799197755 c-1.3980555534362793,-1.5809304361507088 -2.781292676925659,-3.1791264470554665 -4.164529323577881,-4.764988130268193 c-0.4816627502441406,-0.5499955083766395 -0.9460352659225464,-1.0950589337247436 -1.4153468608856201,-1.6450552780679004 c-1.4696886539459229,-1.723977682732368 -2.90232515335083,-3.4775526405874757 -4.347311973571777,-5.211393772834185 c-0.3581596314907074,-0.4414766048440555 -0.726199209690094,-0.8730879091050525 -1.0843584537506104,-1.3219630564751697 c-1.593192458152771,-1.9878771454364426 -3.188854217529297,-3.9880883797173396 -4.747464179992676,-6.020359049362128 c-0.16055426001548767,-0.21950531152084096 -0.33345890045166016,-0.414346893888883 -0.49895280599594116,-0.6239864868434069 c-7.049565315246582,-9.184684828651825 -13.644637107849121,-18.70972554286982 -19.723459243774414,-28.55786015061358 c-0.019760532304644585,0 -0.027170725166797638,-0.017264460754024658 -0.03705097734928131,-0.03699528770574112 c-1.4795689582824707,-2.3948260043503637 -2.924556016921997,-4.8167807941215415 -4.357193946838379,-7.24859974994979 c-0.16549436748027802,-0.2860964935117707 -0.3309888243675232,-0.5795925446518027 -0.4915429353713989,-0.8730879091050525 c-1.2671425342559814,-2.155590061807459 -2.4947640895843506,-4.350640609404422 -3.717447280883789,-6.5530885052895655 c-0.22971616685390472,-0.4118808225186683 -0.4693123698234558,-0.8533572482270415 -0.6940878033638,-1.275102595074145 c-1.1164696216583252,-2.074200122831371 -2.2477598190307617,-4.13606997837951 -3.3271775245666504,-6.24972963161008 c-0.271707147359848,-0.4957358177627711 -0.5310640335083008,-0.9988719096965326 -0.7904207110404968,-1.5118723169671 c-1.042366862297058,-2.0199404023615557 -2.0649733543395996,-4.07440861036514 -3.065349817276001,-6.121478036995086 c-0.26676711440086365,-0.5623275670166947 -0.5310640335083008,-1.1197220956145486 -0.815121591091156,-1.6795835614050816 c-0.9682650566101074,-2.0199404023615557 -1.924180507659912,-4.0472783918588675 -2.857863187789917,-6.089416093731643 c-0.259356826543808,-0.5672603068760651 -0.5261237025260925,-1.1567185103822908 -0.7756004333496094,-1.7264454558915645 c-0.9238044023513794,-2.044603803098937 -1.837728500366211,-4.091674423966765 -2.7096595764160156,-6.148608255501358 c-0.2494768649339676,-0.5771254880353354 -0.4890731871128082,-1.154251812037188 -0.726199209690094,-1.7338423264845915 c-0.8867537975311279,-2.0914640256523853 -1.7463352680206299,-4.182928528999923 -2.5886266231536865,-6.294122797547061 c-0.21489575505256653,-0.5425968464267896 -0.4446118474006653,-1.0851939317011556 -0.6471573114395142,-1.642589415689315 c-0.8571125268936157,-2.1679212844809967 -1.6672929525375366,-4.333374318107644 -2.477475166320801,-6.5160934041834935 c-0.17537492513656616,-0.5056015064731412 -0.3779200315475464,-1.0013381303464826 -0.5557645559310913,-1.4970733211343656 c-0.8200613260269165,-2.2838402233369948 -1.622833251953125,-4.570146309052575 -2.398432970046997,-6.873715103351287 c-0.13832366466522217,-0.40201513380829823 -0.28158748149871826,-0.789231809190909 -0.41497093439102173,-1.2109776337331652 c-0.8348815441131592,-2.4589510851151317 -1.6253029108047485,-4.937632413125016 -2.3934922218322754,-7.413845967975703 c-0.07904217392206192,-0.24910142226164567 -0.15067404508590698,-0.4883371259569742 -0.22971616685390472,-0.7152410098598239 c-5.122913837432861,-16.694717581808163 -8.99350357055664,-33.86296863621283 -11.498151779174805,-51.33213515359057 l0.004940132610499859,-0.017264460754024658 c20.77570915222168,-23.879195356011678 46.111148834228516,-49.28999601863234 74.77133178710938,-69.75574422932004 " id="path40" fill-rule="nonzero" fill="#ef591a" stroke-width="0" transform=""/>
    </g><g id="g42" stroke-width="0" class="" transform="">
     <path d="m848.2283935546875,965.4660846260958 c-0.059281639754772186,0.03452894016801622 -0.11115290224552155,0.06412517033260912 -0.16549436748027802,0.10851947825956465 c-2.304570198059082,1.383622155437564 -4.63137149810791,2.732715310995218 -6.968050479888916,4.0645446831556455 c-0.05434151366353035,0.04439432285492906 -0.10127270221710205,0.07645696773312771 -0.1457338035106659,0.10112036847050909 c-2.349031686782837,1.3318284167701222 -4.715353965759277,2.6439263517979157 -7.094025135040283,3.916560934865288 c-0.04199111461639404,0.022197174489441363 -0.07904217392206192,0.059192475257159316 -0.1136230081319809,0.06905794004792654 c-2.388551712036133,1.2899005160927857 -4.809215068817139,2.5576046880646572 -7.239757061004639,3.7883122064212102 c-0.02470066398382187,0 -0.03705097734928131,0.03452894016801622 -0.0666917935013771,0.03452894016801622 c-2.447834014892578,1.2504389554891873 -4.89813756942749,2.4515511095036118 -7.3607916831970215,3.635399360697022 c-0.00988025963306427,-0.009865402279878088 -0.0222306028008461,0.007399054275654016 -0.03211086615920067,0.007399054275654016 c-14.914249420166016,7.140081742095617 -30.369441986083984,13.199901754942402 -46.244537353515625,18.13506591721307 c-1.165871024131775,-4.945030477955925 -2.3416225910186768,-9.964049247343382 -3.5371322631835938,-15.076792761094111 c-30.77946662902832,-131.07412330244188 -74.08462524414062,-315.46324465731595 -171.03958129882812,-370.38146407366 c11.755032539367676,-20.840654831263237 24.1152400970459,-41.06718477412869 36.86323165893555,-60.425551546354654 c0.721258819103241,0.3107602823764637 1.4425172805786133,0.6289189281433067 2.158837080001831,0.9594102893810401 c135.67567443847656,60.576002590109056 270.0990295410156,154.39344274238465 335.6495666503906,279.93311993794487 c-5.340278625488281,9.993649149789462 -11.149868965148926,19.65680777430771 -17.374433517456055,28.962341833487244 l-0.014820394106209278,0.017264460754024658 c-1.5536705255508423,2.325768482285696 -3.139451742172241,4.614540908075014 -4.747464179992676,6.903311184236145 c0,0 -0.014820394106209278,0.017264460754024658 -0.014820394106209278,0.027129888224858068 c-1.6178927421569824,2.2665767982111333 -3.245664596557617,4.523286803041856 -4.893197059631348,6.7331337191482135 c-0.004940132610499859,0.017264460754024658 -0.02470066398382187,0.056726161307374845 -0.04199111461639404,0.06659148801438697 c-1.6574132442474365,2.212316600046165 -3.3247063159942627,4.4024332732577705 -5.026579856872559,6.580220634576449 c-0.019760532304644585,0.03699528770574112 -0.04199111461639404,0.04439432285492906 -0.07410204410552979,0.08385595809839508 c-1.6919939517974854,2.1531225274958388 -3.4062185287475586,4.301311419453896 -5.1476149559021,6.414972983465077 c-0.0222306028008461,0.03452894016801622 -0.0444612056016922,0.051793391592057425 -0.0815121978521347,0.10112036847050909 c-1.7290446758270264,2.0988630458735997 -3.5025503635406494,4.192794366990029 -5.278528213500977,6.254661356367251 c-0.0444612056016922,0.03699528770574112 -0.0716320052742958,0.08385595809839508 -0.11609312146902084,0.12085117116426858 c-1.7833863496780396,2.0569355034676278 -3.576653003692627,4.091674423966765 -5.399561882019043,6.091881478415075 c-0.04199111461639404,0.049327044054332525 -0.08398232609033585,0.09125502310353006 -0.12350334972143173,0.13811570096017078 c-1.8253779411315918,1.9928109003980126 -3.6631054878234863,3.9634233070469236 -5.532943248748779,5.929103988938664 c-0.05434151366353035,0.05425980630566318 -0.10621283948421478,0.10112036847050909 -0.15808430314064026,0.15784637676615532 c-1.8648996353149414,1.9434831435329443 -3.7446177005767822,3.8721680077758833 -5.641626358032227,5.75892604615558 c-0.05434151366353035,0.06905794004792654 -0.12103322893381119,0.11345218826298797 -0.1704346239566803,0.17757718692390156 c-1.8994793891906738,1.8793583016157527 -3.818718433380127,3.7735136882836287 -5.762659072875977,5.598612985972295 c-0.049401335418224335,0.06165877054697688 -0.1259733885526657,0.12578385131174485 -0.19019532203674316,0.17264453663237234 c-1.9464104175567627,1.8448288240406896 -3.895291328430176,3.6723942229555178 -5.871343612670898,5.462963326526392 c-0.0815121978521347,0.06412517033260912 -0.13832366466522217,0.12578385131174485 -0.20254553854465485,0.18251013577490127 c-1.985931158065796,1.7782380003211244 -3.984212636947632,3.54167796019982 -6.002255439758301,5.295251246121893 c-0.0716320052742958,0.06165877054697688 -0.1358536034822464,0.11838489080242454 -0.20995567739009857,0.16277908676957864 c-2.0229830741882324,1.7437091198650023 -4.053374290466309,3.470154814604143 -6.118350028991699,5.159602542066295 c-0.0666917935013771,0.05425980630566318 -0.14079365134239197,0.10605310832987946 -0.21489575505256653,0.17264453663237234 c-2.067444086074829,1.6795835614050816 -4.134888172149658,3.3443693212153107 -6.239381790161133,4.977091943524215 c-0.06422173976898193,0.051793391592057425 -0.14326386153697968,0.11838489080242454 -0.22230589389801025,0.18251013577490127 c-2.0946149826049805,1.6376572132369915 -4.199108123779297,3.2383174145873 -6.340654373168945,4.821712996573865 c-0.0815121978521347,0.059192475257159316 -0.14820392429828644,0.12331766051774196 -0.21983593702316284,0.17017824134255477 c-2.1415464878082275,1.578464334924547 -4.30532169342041,3.1643276900703086 -6.471569061279297,4.688530154896853 c-0.07410204410552979,0.05425980630566318 -0.1457338035106659,0.10358676079215456 -0.21983593702316284,0.1652455014831844 c-2.1835365295410156,1.531602918133217 -4.374482154846191,3.0459412169026905 -6.590131759643555,4.523286803041856 c-0.07410204410552979,0.03699528770574112 -0.14326386153697968,0.08385595809839508 -0.20254553854465485,0.13811570096017078 c-2.223057270050049,1.4674786733349663 -4.458466529846191,2.934957107822356 -6.723513603210449,4.377770827910695 c-0.049401335418224335,0.04439432285492906 -0.12350334972143173,0.07645696773312771 -0.1803148239850998,0.1282502510973771 c-2.2675180435180664,1.4403477382859649 -4.557270050048828,2.8535666911511157 -6.844547748565674,4.2322567635601445 " id="path44" fill-rule="nonzero" fill="#ef591a" stroke-width="0" transform=""/>
    </g><g id="g46" stroke-width="0" class="" transform="">
     <path d="m584.3519897460938,1003.0994132071937 c-1.8006764650344849,-0.47600557486801875 -3.601353168487549,-0.9766740727782661 -5.384741306304932,-1.4773436753585543 c-0.8793432712554932,-0.22937062703187294 -1.7438658475875854,-0.48587108444270655 -2.610856533050537,-0.7325064054781905 c-1.9118298292160034,-0.5524622067217422 -3.818718433380127,-1.1295878141808657 -5.718198776245117,-1.7190454802800446 c-0.6323366165161133,-0.1923755408537744 -1.2473819255828857,-0.3748855124209669 -1.8648996353149414,-0.5672603068760651 c-2.378671884536743,-0.7547032870061514 -4.742525577545166,-1.531602918133217 -7.094025135040283,-2.3233021422119577 c-0.975675106048584,-0.3304910029663688 -1.931591510772705,-0.668380369323117 -2.8875045776367188,-0.9988719096965326 c-1.4523979425430298,-0.5154669264799878 -2.8949148654937744,-1.0284676323100257 -4.322611331939697,-1.5685982580868654 c-1.1263494491577148,-0.38721718293371055 -2.2279975414276123,-0.8089624103570259 -3.3370559215545654,-1.223308736982915 c-1.2869031429290771,-0.4932695672568741 -2.5688679218292236,-0.9816072903327893 -3.8557686805725098,-1.4748769770134516 c-1.131290078163147,-0.4513419949949551 -2.2699904441833496,-0.8928188088306399 -3.4062185287475586,-1.3392275564151248 c-1.5833113193511963,-0.6437170880095238 -3.169092893600464,-1.3046984371114263 -4.737585544586182,-1.965679845925223 c-1.8476088047027588,-0.7793666877435328 -3.682866096496582,-1.578464334924547 -5.513183116912842,-2.3775613849866204 c-0.8818131685256958,-0.39214962423361044 -1.7784452438354492,-0.7793666877435328 -2.660259246826172,-1.201112512285789 c-1.420287013053894,-0.6313852682170449 -2.815873384475708,-1.2849677165215212 -4.23369026184082,-1.9385507022330444 c-0.7484292387962341,-0.3452890434087976 -1.5017993450164795,-0.7053760078362359 -2.2502284049987793,-1.0605301726924097 c-1.5166194438934326,-0.7251065492904587 -3.0332396030426025,-1.450213456852282 -4.51774787902832,-2.1851854261495873 c-0.07904217392206192,-0.03946162404748588 -0.14820392429828644,-0.08138961056067018 -0.23465639352798462,-0.11345218826298797 c-3.626054048538208,-1.8152322654606792 -7.210118293762207,-3.6871927410930994 -10.759596824645996,-5.586279852518146 c-0.2050154060125351,-0.1282502510973771 -0.42485150694847107,-0.23923615153453426 -0.6273965835571289,-0.3576207437774883 c-1.6450636386871338,-0.8903521701974313 -3.282715320587158,-1.7905688647232978 -4.917897701263428,-2.7253150965361215 c-0.3952106535434723,-0.22937062703187294 -0.7904207110404968,-0.4587412540637459 -1.1955111026763916,-0.6905774896986543 c-1.6574132442474365,-0.9520112691598257 -3.3172967433929443,-1.9064878035792958 -4.957420349121094,-2.873297650588597 c-1.1708106994628906,-25.640166945612236 0.049401335418224335,-51.72426555059428 3.3419976234436035,-78.0032236515126 c10.962142944335938,-87.52333646253464 44.69828796386719,-176.93097775999195 88.23808288574219,-257.7408859061252 c89.40148162841797,50.73774098578269 131.55809020996094,230.2287940731694 161.51498413085938,357.80803849298536 c1.2745535373687744,5.4062360717449565 2.514526844024658,10.691625779133119 3.7446177005767822,15.903020985052763 c-0.20007526874542236,0.03699528770574112 -0.39274051785469055,0.10358676079215456 -0.573054850101471,0.1282502510973771 c-2.7442426681518555,0.6881119258795394 -5.490952968597412,1.3120978156040053 -8.25001335144043,1.9286858196332446 c-1.0151963233947754,0.22937062703187294 -2.0303921699523926,0.4242124034635708 -3.0357086658477783,0.6412506882238915 c-1.9809911251068115,0.4069477542438804 -3.9669229984283447,0.8188279497876607 -5.960265636444092,1.2134440932306916 c-1.151050329208374,0.20224076679696523 -2.3169209957122803,0.42667868382541485 -3.4704415798187256,0.6412506882238915 c-1.8846592903137207,0.3576207437774883 -3.7717888355255127,0.6609814088137966 -5.666326999664307,0.9717419897497308 c-1.1782206296920776,0.20470713672665042 -2.3539717197418213,0.38721718293371055 -3.5247819423675537,0.569726467814121 c-1.9661712646484375,0.30089468323393476 -3.9323415756225586,0.569726467814121 -5.898514747619629,0.8434920073558771 c-1.0892984867095947,0.15784637676615532 -2.151426076889038,0.29349572272461444 -3.245664596557617,0.4414766048440555 c-2.4404242038726807,0.30089468323393476 -4.866025924682617,0.5672603068760651 -7.3212690353393555,0.8262274477040279 c-0.6051658987998962,0.07399063512337634 -1.2202112674713135,0.1356492116066974 -1.8476088047027588,0.21950531152084096 c-3.0406494140625,0.2959621225102467 -6.110936164855957,0.5327311278604725 -9.161469459533691,0.7695006109058511 c-0.9015733599662781,0.04686065173268705 -1.8130269050598145,0.09372140796118877 -2.712130546569824,0.1603127466958405 c-2.1884756088256836,0.12331766051774196 -4.374482154846191,0.2515676429115956 -6.572839736938477,0.3428228227588477 c-1.146109700202942,0.059192475257159316 -2.2996301651000977,0.08632231310010674 -3.445739984512329,0.13071660609908875 c-1.9834623336791992,0.05425980630566318 -3.9669229984283447,0.1109857959413425 -5.945444583892822,0.14798106125512334 c-1.2004516124725342,0.012331770343566584 -2.4083118438720703,0.027129888224858068 -3.6087636947631836,0.03699528770574112 c-1.9884021282196045,0.007399054275654016 -3.991624116897583,-0.009865402279878088 -5.97755765914917,-0.02466351829517288 c-1.165871024131775,0 -2.3070406913757324,-0.022197174489441363 -3.4506797790527344,-0.049327044054332525 c-2.2526984214782715,-0.06412517033260912 -4.507866859436035,-0.15044737147291443 -6.770444869995117,-0.24910142226164567 c-0.8719331622123718,-0.03452894016801622 -1.7438658475875854,-0.05425980630566318 -2.635558843612671,-0.10112036847050909 c-3.124631643295288,-0.14304824675588534 -6.264081954956055,-0.34775550290632395 -9.393654823303223,-0.5943907045180197 c-0.6446868777275085,-0.04686065173268705 -1.2869031429290771,-0.12085117116426858 -1.9217097759246826,-0.17511110062571333 c-2.514526844024658,-0.21210636593949417 -5.019169807434082,-0.4414766048440555 -7.526284694671631,-0.7053760078362359 c-1.0942384004592896,-0.11838489080242454 -2.198357105255127,-0.24910142226164567 -3.3000056743621826,-0.3847503950207667 c-2.0773229598999023,-0.23923615153453426 -4.139828681945801,-0.4982028743792384 -6.222090721130371,-0.7645676919107984 c-1.2004516124725342,-0.17264453663237234 -2.4083118438720703,-0.35022175341222095 -3.603822946548462,-0.5228658869893081 c-2.0205130577087402,-0.29349572272461444 -4.023734092712402,-0.6042551691345608 -6.046716213226318,-0.9273479878462325 c-1.1806902885437012,-0.2096399362979149 -2.3564412593841553,-0.3847503950207667 -3.547013759613037,-0.5943907045180197 c-2.1613054275512695,-0.38721718293371055 -4.32014274597168,-0.7818327889696945 -6.478978633880615,-1.2035786135119508 c-1.0226064920425415,-0.19977450136309471 -2.032862424850464,-0.38721718293371055 -3.0579397678375244,-0.6042551691345608 c-3.15674090385437,-0.6239864868434069 -6.315953731536865,-1.314564513949108 -9.48010540008545,-2.0495367220939897 c-2.591097831726074,-0.6141207085651956 -5.164904594421387,-1.2405728786515056 -7.733770847320557,-1.8966224432843433 c-0.7854800820350647,-0.21210636593949417 -1.585782527923584,-0.4217460335338856 -2.3663220405578613,-0.6338521456978299 " id="path48" fill-rule="nonzero" fill="#ef591a" stroke-width="0" transform=""/>
    </g><g id="g50" stroke-width="0" class="" transform="">
     <path d="m509.6770935058594,374.31278416953137 c0.22971616685390472,-0.13811570096017078 0.47178250551223755,-0.2614328539268129 0.7064380049705505,-0.399548734022666 c7.123664379119873,-3.8351731455173876 14.383183479309082,-7.40151378991186 21.771142959594727,-10.728619447153733 c0.20007526874542236,-0.07645696773312771 0.4075610041618347,-0.15784637676615532 0.6051658987998962,-0.2614328539268129 c7.449714660644531,-3.3345061105485456 15.050104141235352,-6.412508076476797 22.7369384765625,-9.204416504632036 c0.14326386153697968,-0.059192475257159316 0.26182690262794495,-0.10112036847050909 0.4100307524204254,-0.15044737147291443 c3.8779993057250977,-1.403352756603681 7.7930521965026855,-2.747512873742494 11.735273361206055,-4.01028233536249 c3.043119430541992,39.762473200400564 26.48896598815918,83.8731187593512 101.40351104736328,123.3150011888265 c-7.6744890213012695,9.784004033484734 -15.311933517456055,19.891103871275845 -22.862916946411133,30.311429376126853 c-6.133170127868652,8.4571102076427 -12.229287147521973,17.12879916712791 -18.256235122680664,25.985456466716187 c-79.0050048828125,-33.645938352846315 -157.59503173828125,-56.158770798713704 -223.0418243408203,-67.34613523192456 c0.00988025963306427,-0.017264460754024658 0.019760532304644585,-0.027129888224858068 0.027170725166797638,-0.03699528770574112 c2.578746795654297,-3.2284520542923474 5.211836338043213,-6.400173987632343 7.894326686859131,-9.517640260911321 c0.12103322893381119,-0.14551467639746463 0.259356826543808,-0.2860964935117707 0.3779200315475464,-0.429145023899153 c5.352630615234375,-6.1954691945975355 10.897924423217773,-12.19856290805319 16.653173446655273,-17.969813966845322 c0.17537492513656616,-0.1652455014831844 0.3581596314907074,-0.34775550290632395 0.5236539244651794,-0.5203997857631464 c5.733017921447754,-5.73426121233274 11.643881797790527,-11.229288870598339 17.75728988647461,-16.519607914267908 c0.21983593702316284,-0.18251013577490127 0.4396716058254242,-0.382284323650552 0.6520969867706299,-0.5598609283834861 c6.0936479568481445,-5.2582571004061265 12.370080947875977,-10.27727682518389 18.804597854614258,-15.101456161831493 c0.2371261566877365,-0.17017824134255477 0.4866030812263489,-0.3576207437774883 0.7286689281463623,-0.5277987462724667 c6.439455986022949,-4.794583733457898 13.05675983428955,-9.347463273518542 19.817323684692383,-13.663572733414867 c0.24700653553009033,-0.14798106125512334 0.5014231204986572,-0.31815927274173106 0.7583098411560059,-0.46860655464680434 c6.772914409637451,-4.308711872760568 13.70638656616211,-8.392987276506119 20.797941207885742,-12.196097045674605 " id="path52" fill-rule="nonzero" fill="#ef591a" stroke-width="0" transform=""/>
    </g><g id="g54" stroke-width="0" class="" transform="">
     <path d="m759.9053344726562,344.832160292317 c2.600975751876831,0.7127749683455562 5.194544792175293,1.418150916469898 7.7658796310424805,2.1703873857071585 c0.25441670417785645,0.06412517033260912 0.511303186416626,0.1553801113322848 0.7632498145103455,0.22937062703187294 c2.830693244934082,0.8311597695801396 5.6613874435424805,1.7042483952279213 8.464909553527832,2.5970668457871966 c0.027170725166797638,0.027129888224858068 0.05434151366353035,0.027129888224858068 0.07904217392206192,0.03699528770574112 c2.976428508758545,0.9544779675049284 5.9306254386901855,1.9632138641228494 8.877410888671875,2.981815897290346 c-32.30103302001953,24.828738672876625 -68.53192901611328,60.80536887310063 -104.4343032836914,104.59788092499184 c-70.89331817626953,-36.47237267586297 -91.7456283569336,-77.30523842365619 -93.7240982055664,-113.6542854973195 c0.027170725166797638,-0.019730795229772724 0.05434151366353035,-0.019730795229772724 0.08398232609033585,-0.019730795229772724 c9.447996139526367,-2.4194889273925924 19.039255142211914,-4.427096196299999 28.719430923461914,-6.020359049362128 c0.39027026295661926,-0.06905794004792654 0.7904207110404968,-0.11838489080242454 1.1856311559677124,-0.1923755408537744 c2.781292676925659,-0.44887565492121695 5.56011438369751,-0.8632224890982059 8.36363697052002,-1.235640676199182 c0.4866030812263489,-0.06659148801438697 0.9806158542633057,-0.1356492116066974 1.4721593856811523,-0.19484170179183025 c2.88503360748291,-0.38721718293371055 5.772539138793945,-0.7201744662619234 8.674866676330566,-1.0284676323100257 c0.2939377725124359,-0.0419279865131843 0.5878756046295166,-0.06412517033260912 0.8744032979011536,-0.10112036847050909 c6.516030788421631,-0.6708468288206433 13.069110870361328,-1.146852433544609 19.639482498168945,-1.4354154164098532 c0.36309969425201416,-0.014798103886316305 0.7138486504554749,-0.02466351829517288 1.072007656097412,-0.03452894016801622 c2.793642044067383,-0.12578385131174485 5.584813117980957,-0.20224076679696523 8.38586711883545,-0.24663502247601343 c0.7830104827880859,-0.009865402279878088 1.5635507106781006,-0.009865402279878088 2.334211587905884,-0.009865402279878088 c2.4305434226989746,-0.03699528770574112 4.8536763191223145,-0.03699528770574112 7.294098377227783,0 c0.8867537975311279,0.009865402279878088 1.75868558883667,0.009865402279878088 2.623206377029419,0.03946162404748588 c2.477475166320801,0.04439432285492906 4.964829444885254,0.12578385131174485 7.4348907470703125,0.2367696173971403 c0.7459591627120972,0.029596228298596206 1.496859073638916,0.05425980630566318 2.2428178787231445,0.09125502310353006 c6.424638271331787,0.3132263537466784 12.85667896270752,0.8089624103570259 19.31342887878418,1.4798095377371396 c0.8793432712554932,0.10112036847050909 1.7488046884536743,0.20717347680038856 2.6256768703460693,0.30089468323393476 c2.2971603870391846,0.2663657132099715 4.614079475402832,0.5499955083766395 6.938410758972168,0.8484245083676711 c1.1214087009429932,0.15044737147291443 2.2477598190307617,0.31815927274173106 3.3666985034942627,0.4834046249451802 c2.1193149089813232,0.30089468323393476 4.2065205574035645,0.6264524089338863 6.328303337097168,0.9717419897497308 c1.153519868850708,0.18251013577490127 2.3169209957122803,0.38968313488013706 3.465500593185425,0.5795925446518027 c2.2057676315307617,0.3946160538751897 4.394244194030762,0.8064959508594995 6.600011348724365,1.2282416559779676 c1.0151963233947754,0.1923755408537744 2.0303921699523926,0.3674862533521761 3.043119430541992,0.582058407030388 c3.188854217529297,0.6486498875807882 6.385117530822754,1.3342948762676485 9.576438903808594,2.084065005431171 c3.0406494140625,0.7053760078362359 6.083766937255859,1.4625455154923372 9.08983325958252,2.254243425909408 c0.4816627502441406,0.1356492116066974 0.9633252024650574,0.2540340128412808 1.459808588027954,0.3798183418481784 " id="path56" fill-rule="nonzero" fill="#ef591a" stroke-width="0" transform=""/>
    </g><g id="g58" stroke-width="0" class="" transform="">
     <path d="m873.6868896484375,503.55113646457175 c-54.711917877197266,-5.290319999059875 -114.70236206054688,-11.096105551226174 -174.297607421875,-37.48357306148591 c37.80679702758789,-45.89382806237427 75.28753662109375,-82.39581019458637 107.10694122314453,-105.18979489956655 c1.4573379755020142,0.6141207085651956 2.8875045776367188,1.2652367570840397 4.330021858215332,1.9064878035792958 c0.9979062080383301,0.4414766048440555 2.008162021636963,0.8780208878119993 3.0110082626342773,1.336761455188963 c1.3906458616256714,0.6338521456978299 2.7664713859558105,1.2899005160927857 4.1521782875061035,1.9459481699450123 c1.0300167798995972,0.4809383445833362 2.069913625717163,0.9495449887979817 3.0974597930908203,1.45514601757597 c1.361005425453186,0.6708468288206433 2.7170701026916504,1.3342948762676485 4.0756049156188965,2.0224065035877175 c1.017666220664978,0.5105344851800879 2.042743682861328,1.030934091807552 3.062880754470825,1.5562665577181747 c1.3486552238464355,0.6881119258795394 2.6874301433563232,1.383622155437564 4.01879358291626,2.1013291470997615 c1.0028462409973145,0.5130005864062497 1.985931158065796,1.055597850816298 2.983837604522705,1.5907954381742968 c1.3437143564224243,0.7399052465637226 2.6800196170806885,1.465011616718499 4.006442546844482,2.2271144016410176 c0.9509753584861755,0.5277987462724667 1.9019490480422974,1.0629965127661478 2.845513105392456,1.6055938368880902 c1.351124882698059,0.7966307099883352 2.702249526977539,1.5735304605391889 4.053374290466309,2.3528975065540862 c0.8768733143806458,0.5179331471299378 1.7364556789398193,1.055597850816298 2.605916738510132,1.578464334924547 c1.395586609840393,0.8410253687226685 2.7887022495269775,1.684516958095287 4.157120227813721,2.5428061699270756 c0.7311387658119202,0.4538085739162696 1.4523979425430298,0.9224153076987562 2.1687171459198,1.386088376087514 c7.373142242431641,4.68606477021342 14.53632926940918,9.63109094891297 21.46979522705078,14.822756389633014 c0.506363034248352,0.38721718293371055 1.0201369524002075,0.7448378669993048 1.519090175628662,1.1443864517422355 c1.4696886539459229,1.0975252737984817 2.9122047424316406,2.2271144016410176 4.349780559539795,3.364100758347945 c0.5854054689407349,0.44887565492121695 1.1782206296920776,0.907617028408751 1.75868558883667,1.3712899773737206 c1.4104061126708984,1.114789773738437 2.813404083251953,2.2567095271355697 4.211458206176758,3.403563393765637 c0.5779947638511658,0.4908036750223417 1.158460259437561,0.9544779675049284 1.7364556789398193,1.4477469973547556 c1.4054657220840454,1.1567185103822908 2.7985832691192627,2.33809994380681 4.162057399749756,3.519481138383753 c0.543414294719696,0.46120762399343107 1.0695381164550781,0.9125492308610745 1.5956621170043945,1.3737560785998824 c1.420287013053894,1.235640676199182 2.8356332778930664,2.493479368452313 4.246039867401123,3.734052485951395 c0.4273214042186737,0.3970824238048749 0.8595824241638184,0.7867661856599 1.2696131467819214,1.183848012345834 c1.4919180870056152,1.3466268154839156 2.9714877605438232,2.6957194933464166 4.42388391494751,4.08180858597666 c0.23218631744384766,0.21950531152084096 0.4544917047023773,0.4316110952693677 0.6916178464889526,0.6437170880095238 c10.418729782104492,9.890059045131238 20.190311431884766,20.384379529145917 29.25050163269043,31.45581117034135 c0.1136230081319809,0.14551467639746463 0.2272460162639618,0.27129839335744776 0.3383989930152893,0.399548734022666 c1.4474563598632812,1.7659054639859164 2.8702142238616943,3.539211142430929 4.26332950592041,5.329780007154227 c0.12350334972143173,0.1553801113322848 0.24700653553009033,0.30089468323393476 0.3729799687862396,0.48587108444270655 c1.4054657220840454,1.8152322654606792 2.8109335899353027,3.6329320652329784 4.189229965209961,5.4777618446639735 c0.0666917935013771,0.09125502310353006 0.1309133619070053,0.15044737147291443 0.1951352208852768,0.2515676429115956 c11.643881797790527,15.570068418964183 21.956396102905273,32.119266681775116 30.786874771118164,49.46015485360931 c-30.91531753540039,-8.984911760374189 -65.4097671508789,-12.334211134413636 -102.20877838134766,-15.885754216060832 " id="path60" fill-rule="nonzero" fill="#ef591a" stroke-width="0" transform=""/>
    </g><g id="g62" stroke-width="0" class="" transform="">
     <path d="m342.50701904296875,585.3824714941584 c0.4866030812263489,-1.7807042209710744 0.9657950401306152,-3.568807939858516 1.4746284484863281,-5.322382420018471 c0.32604870200157166,-1.183848012345834 0.6940878033638,-2.3726289436867205 1.0621274709701538,-3.556476000642249 c0.43720170855522156,-1.5242031813692734 0.8818131685256958,-3.038542196681476 1.361005425453186,-4.54055070586287 c0.40262091159820557,-1.2899005160927857 0.8274715542793274,-2.574868829733248 1.2523231506347656,-3.859836546254769 c0.43720170855522156,-1.3712899773737206 0.8892237544059753,-2.7450470113639085 1.3486552238464355,-4.111404666861517 c0.46684250235557556,-1.3688242344189234 0.9559154510498047,-2.7154499750887453 1.4326367378234863,-4.079342723598074 c0.4594321548938751,-1.2627704170103016 0.8916932344436646,-2.520608870415856 1.351124882698059,-3.775980028357367 c0.533534049987793,-1.418150916469898 1.0621274709701538,-2.8264364726448434 1.608013391494751,-4.222389970179734 c0.4396716058254242,-1.183848012345834 0.8744032979011536,-2.34796482640661 1.3560653924942017,-3.524413579683653 c0.5656444430351257,-1.452680394044961 1.1708106994628906,-2.9078254562306256 1.75868558883667,-4.348174269330684 c0.45202183723449707,-1.0950589337247436 0.8916932344436646,-2.1851854261495873 1.351124882698059,-3.253115693877305 c0.6397464871406555,-1.499539780631892 1.2967830896377563,-2.9966141765803513 1.948880672454834,-4.483823928776587 c0.43473151326179504,-1.0038042315726443 0.8916932344436646,-2.007607985450136 1.3437143564224243,-3.023743439696318 c0.6990282535552979,-1.5192713371883144 1.395586609840393,-3.0459412169026905 2.111905336380005,-4.565213628905099 c0.43720170855522156,-0.9396795090792409 0.8744032979011536,-1.862095354185044 1.323953628540039,-2.789441132691195 c0.7583098411560059,-1.5710645981606035 1.536379337310791,-3.1297974959525163 2.302100658416748,-4.690996017275438 c0.43226149678230286,-0.8434920073558771 0.8645223379135132,-1.6869828204738724 1.2918434143066406,-2.537873967474752 c0.8274715542793274,-1.6006612761644021 1.6450636386871338,-3.196388677943446 2.4997050762176514,-4.799514502824763 c0.4050907492637634,-0.7547032870061514 0.8274715542793274,-1.5266695214430115 1.239972472190857,-2.2986387414745764 c0.8916932344436646,-1.6450552780679004 1.793265461921692,-3.2753122768457956 2.6973094940185547,-4.900637312018944 c0.39274051785469055,-0.6881119258795394 0.7879501581192017,-1.3712899773737206 1.1831605434417725,-2.0495367220939897 c0.9559154510498047,-1.684516958095287 1.9291207790374756,-3.3443693212153107 2.9122047424316406,-5.016553862399178 c0.3680398464202881,-0.6042551691345608 0.723728358745575,-1.1887802147981574 1.0942384004592896,-1.7881030023447124 c1.0374274253845215,-1.7338423264845915 2.089674711227417,-3.4504238551666617 3.161681652069092,-5.149738137161648 c0.31122803688049316,-0.4957358177627711 0.6249269843101501,-0.9840733318470569 0.9460352659225464,-1.4674786733349663 c1.1362292766571045,-1.7881030023447124 2.2699904441833496,-3.571274279932254 3.445739984512329,-5.332247302618271 c0.23959645628929138,-0.3699526232818613 0.4866030812263489,-0.7423708103828375 0.7410187125205994,-1.0999919721435845 c1.2498522996902466,-1.8719585648518091 2.5046463012695312,-3.7439190404842293 3.786607265472412,-5.5714813343805645 c0.014820394106209278,-0.04686065173268705 0.04199111461639404,-0.05425980630566318 0.059281639754772186,-0.08632231310010674 c64.56501007080078,10.116967108866675 144.26901245117188,32.336312251386516 225.0376739501953,66.46071006924467 c-12.538044929504395,19.18079601925865 -24.683340072631836,39.160699597872735 -36.265480041503906,59.74484359678354 c-67.25242614746094,-28.330953042268447 -130.50091552734375,-6.257126263355531 -183.10092163085938,31.283170231350596 c-24.73274803161621,17.64919262343028 -47.0201301574707,38.758675178864905 -66.18289947509766,59.51545820598585 c-0.3952106535434723,-5.921704013327144 -0.6249269843101501,-11.865605565013084 -0.6990282535552979,-17.8366382905956 c-0.004940132610499859,-0.414346893888883 -0.00988025963306427,-0.8114286310069758 -0.00988025963306427,-1.2208428746043296 c-0.049401335418224335,-5.408703844904153 0.04199111461639404,-10.842069179765076 0.2494768649339676,-16.275434992321152 c0.03705097734928131,-0.7522366483729428 0.059281639754772186,-1.5044736550172502 0.08892243355512619,-2.2493107457619317 c0.07657213509082794,-1.5044736550172502 0.15067404508590698,-2.9867485774378224 0.24700653553009033,-4.4862902688503254 c0.06916195154190063,-1.0284676323100257 0.12844352424144745,-2.0544689245463132 0.20748546719551086,-3.1026670385986677 c0.0864524096250534,-1.3712899773737206 0.17784477770328522,-2.7253150965361215 0.2914677560329437,-4.1138710069352555 c0.1803148239850998,-2.1679212844809967 0.3779200315475464,-4.365438172151698 0.5952856540679932,-6.548157258227548 c0.11115290224552155,-1.0876601523511056 0.23218631744384766,-2.1654542278645295 0.35321947932243347,-3.2481839691201344 c0.16055426001548767,-1.4970733211343656 0.32604870200157166,-2.9867485774378224 0.5236539244651794,-4.483823928776587 c0.12844352424144745,-1.055597850816298 0.24700653553009033,-2.1013291470997615 0.40262091159820557,-3.1692577428944446 c0.23959645628929138,-1.800435299832344 0.4915429353713989,-3.588537943905692 0.7558392286300659,-5.379108719409601 c0.09880267083644867,-0.7078425867575504 0.21489575505256653,-1.418150916469898 0.3211086392402649,-2.125992547837143 c0.3754499852657318,-2.4614164697985643 0.8003008961677551,-4.932699255282387 1.2300913333892822,-7.399047449838122 c0.12844352424144745,-0.7547032870061514 0.28652772307395935,-1.5069390397006828 0.42485150694847107,-2.2665767982111333 c0.34827908873558044,-1.901555362279396 0.7163186073303223,-3.8006448621802065 1.1016486883163452,-5.694801681933541 c0.16055426001548767,-0.7596352506108985 0.30381807684898376,-1.5291370557546315 0.4643723964691162,-2.3035711827744763 c0.5483538508415222,-2.5477381335318228 1.0942384004592896,-5.117674760812747 1.6969335079193115,-7.667879473265884 c0.6422169208526611,-2.7845096467816006 1.3313645124435425,-5.551750613790659 2.050152540206909,-8.314064394146499 c0.25688663125038147,-0.9643428501047282 0.5360036492347717,-1.93115168201183 0.7706597447395325,-2.873297650588597 " id="path64" fill-rule="nonzero" fill="#ef591a" stroke-width="0" transform=""/>
    </g><g id="g66" stroke-width="0" class="" transform="">
     <g id="g68" stroke-width="0" transform=""/>
     <g id="g76" stroke-width="0" transform="">
      <g clip-path="url(#clipPath72)" opacity="0.5" id="g74" stroke-width="0" transform=""/>
     </g>
    </g></g></g>
</svg>